<?xml version="1.0" encoding="UTF-8"?>
<svg width="146px" height="113px" viewBox="0 0 146 113" version="1.1" xmlns="http://www.w3.org/2000/svg" xmlns:xlink="http://www.w3.org/1999/xlink">
    <title>Slice-146x113</title>
    <g id="Page-1" stroke="none" stroke-width="1" fill="none" fill-rule="evenodd">
        <g id="icon-child-safety-internet" transform="translate(33.000000, 11.000000)">
            <path d="M39.5556809,3.36815414 L39.9281673,94.6092017 C26.1692222,87.932101 16.9813274,82.3158474 12.4064539,77.7095 C7.70001042,72.9706775 4.09448089,65.4120274 1.5,55.0919966 L1.5,55.0919966 L1.5,15.6201781 C11.3656978,16.4403073 18.5291345,16.0443603 23.0074371,14.5187636 C27.222662,13.082788 32.7495104,9.38770103 39.5556809,3.36815414 L39.5556809,3.36815414 Z" id="Rectangle" stroke="#E02020" stroke-width="3" fill="#E02020"></path>
            <path d="M42.5563727,3.53148786 C49.4171071,9.9485546 55.0927612,13.8808229 59.5462786,15.4010835 C64.2748346,17.0152318 71.2537427,17.1643066 80.5,15.7436 L80.5,15.7436 L80.5,55.1115261 C78.2157297,65.2986361 74.7525412,72.8536677 70.0207158,77.7209267 C65.424357,82.448842 56.3792006,88.0631322 42.9282177,94.6154137 L42.9282177,94.6154137 Z" id="Rectangle" stroke="#FFFFFF" stroke-width="3" fill="#FFFFFF"></path>
            <g id="boy" transform="translate(14.500000, 28.000000)" fill="#FFFFFF" fill-rule="nonzero">
                <path d="M11.5,17 C5.22948186,17 0.5,20.9065171 0.5,26.1374748 C0.5,26.9357247 1.23901875,27.5828341 2.15064458,27.5828341 C3.0622704,27.5828341 3.80128915,26.9357247 3.80128915,26.1374748 C3.78226267,24.021528 5.03599174,22.0528715 7.10177499,20.9549174 L7.10177499,41.5546407 C7.10177501,42.3528906 7.84079376,43 8.75241957,43 C9.66404538,43 10.4030641,42.3528906 10.4030641,41.5546407 L10.4030641,31.4371256 L12.6039236,31.4371256 L12.6039236,41.5546407 C12.6039236,42.3528906 13.3429424,43 14.2545682,43 C15.166194,43 15.9052127,42.3528906 15.9052127,41.5546407 L15.9052127,20.9590897 C17.9669269,22.0577237 19.2176351,24.024219 19.1987108,26.1374748 C19.1987108,26.9357247 19.9377296,27.5828341 20.8493554,27.5828341 C21.7609813,27.5828341 22.5,26.9357247 22.5,26.1374748 C22.5,20.9065171 17.7705181,17 11.5,17 Z" id="Path"></path>
                <circle id="Oval" cx="11" cy="6.5" r="6.5"></circle>
            </g>
            <g id="girl" transform="translate(43.500000, 27.000000)" fill="#E02020">
                <path d="M14.0000135,17 C6.30437281,17 0.5,21.0567678 0.5,26.4889161 C0.5,27.317868 1.40697892,27.9898662 2.52579411,27.9898662 C3.64460931,27.9898662 4.55158822,27.317868 4.55158822,26.4889161 C4.53145938,24.1106449 6.33146175,21.9292098 9.19762547,20.8583522 L6.0816435,32.8689545 C6.03360939,33.1537507 6.15294262,33.4401181 6.40931546,33.6552783 C6.6656883,33.8704384 7.03441543,33.9936743 7.42178734,33.9936664 L8.59295294,33.9936664 L8.59295294,42.49905 C8.59295294,43.3280018 9.49993185,44 10.618747,44 C11.7375622,44 12.6445412,43.3280018 12.6445412,42.49905 L12.6445412,33.9936664 L15.3456,33.9936664 L15.3456,42.49905 C15.3456,43.3280018 16.2525789,44 17.3713941,44 C18.4902093,44 19.3971882,43.3280018 19.3971882,42.49905 L19.3971882,33.9936664 L20.5683538,33.9936664 C20.9557234,33.9936715 21.3244468,33.8704343 21.5808166,33.6552745 C21.8371865,33.4401147 21.956518,33.153749 21.9084841,32.8689545 L18.7913272,20.8538393 C21.6636054,21.9232569 23.4685535,24.1072458 23.4484118,26.4889161 C23.4484118,27.317868 24.3553907,27.9898662 25.4742059,27.9898662 C26.5930211,27.9898662 27.5,27.317868 27.5,26.4889161 C27.5,21.0567678 21.6956542,17 14.0000135,17 Z" id="Path" fill-rule="nonzero"></path>
                <ellipse id="Oval" fill-rule="nonzero" cx="13.5" cy="7.5" rx="7" ry="6.5"></ellipse>
                <path d="M18.2764181,3.67827814 C18.722045,3.06712169 19.1703577,2.68622132 19.6213562,2.53557702 C19.9753172,2.41734553 20.525489,2.29155114 21.2718714,2.15819385 C22.2935659,1.97566833 23.2697934,2.65592861 23.4523404,3.67761922 C23.4725688,3.79083487 23.4823614,3.90566845 23.4815949,4.02067448 C23.4769012,4.724914 22.9021973,5.29200794 22.1979577,5.28731425 C21.988873,5.28592072 21.7833388,5.2331345 21.5994767,5.13357005 C20.7121542,4.65328693 20.0104171,4.34357553 19.4942654,4.20443586 C18.8136909,4.02097252 18.2895247,4.44088395 17.9217668,5.46417015 C17.9004714,5.52340404 17.8351929,5.55416647 17.7759567,5.53287761 C17.730375,5.51649604 17.7001261,5.47309418 17.7005345,5.42465989 L17.7005697,5.42048338 C17.7058445,4.79385802 17.9072191,4.18461724 18.2764181,3.67827814 Z" id="Rectangle" transform="translate(20.594876, 4.039568) rotate(18.000000) translate(-20.594876, -4.039568) "></path>
                <polygon id="Triangle" transform="translate(18.530865, 1.898390) rotate(71.000000) translate(-18.530865, -1.898390) " points="18.5440579 0.930878288 20.1060793 2.84391314 16.9556511 2.86590105"></polygon>
                <polygon id="Triangle" transform="translate(7.826278, 1.898390) scale(-1, 1) rotate(71.000000) translate(-7.826278, -1.898390) " points="7.83947043 0.930878288 9.40149178 2.84391314 6.25106359 2.86590105"></polygon>
                <path d="M3.44380801,3.67827814 C3.88943493,3.06712169 4.33774762,2.68622132 4.78874609,2.53557702 C5.14270717,2.41734553 5.69287892,2.29155114 6.43926134,2.15819385 C7.46095579,1.97566833 8.43718327,2.65592861 8.61973029,3.67761922 C8.63995871,3.79083487 8.6497513,3.90566845 8.64898479,4.02067448 C8.6442911,4.724914 8.06958717,5.29200794 7.36534764,5.28731425 C7.15626296,5.28592072 6.95072873,5.2331345 6.76686664,5.13357005 C5.87954414,4.65328693 5.17780705,4.34357553 4.66165535,4.20443586 C3.98108085,4.02097252 3.45691464,4.44088395 3.08915672,5.46417015 C3.06786132,5.52340404 3.00258282,5.55416647 2.94334658,5.53287761 C2.89776487,5.51649604 2.86751602,5.47309418 2.86792444,5.42465989 L2.86795965,5.42048338 C2.87323447,4.79385802 3.07460904,4.18461724 3.44380801,3.67827814 Z" id="Rectangle" transform="translate(5.762266, 4.039568) scale(-1, 1) rotate(18.000000) translate(-5.762266, -4.039568) "></path>
            </g>
        </g>
    </g>
</svg>