<?xml version="1.0" encoding="UTF-8"?>
<svg width="146px" height="113px" viewBox="0 0 146 113" version="1.1" xmlns="http://www.w3.org/2000/svg" xmlns:xlink="http://www.w3.org/1999/xlink">
    <!-- Generator: Sketch 63.1 (92452) - https://sketch.com -->
    <title>Slice-146x113</title>
    <desc>Created with Sketch.</desc>
    <g id="Page-1" stroke="none" stroke-width="1" fill="none" fill-rule="evenodd">
        <g id="icon-Water-lgr" transform="translate(34.000000, 21.000000)" fill="#FFFFFF" fill-rule="nonzero">
            <path d="M69.0905416,58.4197531 C70.6230502,61.6449636 77.5185185,78.5959094 77.5185185,81.027355 C77.5185185,94.324215 60.6666667,94.324215 60.6666667,81.027355 C60.6674871,78.5959094 67.5629554,60.8408227 69.0905416,58.4197531 Z" id="Path"></path>
            <path d="M78.9675836,43.8149683 C78.9675836,42.0233629 78.9675836,39.041294 78.9675836,33.8032544 C78.9675836,27.4600256 73.1731224,21.9771389 65.4921911,21.9771389 C65.4921911,21.9771389 65.447174,21.9771389 47.5473681,21.9771389 L47.4479908,16.4115108 C47.4479908,14.8115616 46.1373995,13.5062732 44.5227307,13.5062732 L37.5060136,13.5062732 L37.5060136,9.93319399 C38.1141687,9.57605493 38.6178502,9.12773143 39.043389,8.57893618 C41.1506974,8.57893618 45.4137289,8.57893618 53.984809,8.57893618 C54.9862264,9.85382976 56.4624466,10.7395009 58.2096185,10.7395009 C61.1849919,10.7395009 63.6065705,8.33999917 63.6065705,5.37481623 C63.6057211,2.40456749 61.1841425,0 58.2087691,0 C56.4225258,0 54.9072342,0.937173424 53.92875,2.27285663 C51.5683267,2.27285663 47.1498589,2.27285663 39.1147368,2.27285663 C38.119265,0.937173424 36.6150154,0 34.8236758,0 C33.0425287,0 31.5221409,0.937173424 30.5436567,2.27285663 C25.95956,2.27285663 20.5235366,2.27285663 14.1863224,2.27285663 C13.2069888,0.937173424 11.6976429,0 9.91649588,0 C6.93092988,0 4.51359821,2.40456749 4.51359821,5.37312763 C4.51359821,8.33915487 6.9300805,10.7378123 9.91649588,10.7378123 C11.6526259,10.7378123 13.1347916,9.85298546 14.1132758,8.57724758 C16.8176975,8.57724758 21.7440937,8.57724758 30.6090588,8.57724758 C31.0405432,9.13786303 31.5544173,9.59378524 32.1736143,9.9374155 L32.1736143,13.5045846 L24.7245635,13.5045846 C23.1149909,13.5045846 21.8043996,14.809873 21.8043996,16.4098222 L21.8043996,21.9754503 C19.9739886,21.9754503 14.7316235,21.9754503 0,21.9754503 L0,39.3182245 C0.513874091,39.3182245 4.0481387,39.3182245 24.2540077,39.3182245 C26.6314186,44.0589711 29.8004504,46.4069705 34.5612178,46.4069705 C39.3168889,46.4069705 43.2817885,44.0598154 45.6600487,39.3182245 C45.6600487,39.3182245 45.6600487,39.3182245 54.3857157,39.3182245 C56.9899107,39.3182245 57.9522567,40.9840291 58.2283048,44.1771732 C57.4655628,44.693885 56.9397974,45.5322753 56.9397974,46.5243282 C56.9397974,48.1293433 58.2503886,49.4320988 59.8599612,49.4320988 L77.9644674,49.4320988 C79.5782868,49.4320988 80.8888889,48.1293433 80.8888889,46.5243282 C80.8922756,45.2688536 80.0913116,44.2219211 78.9675836,43.8149683 Z" id="Path"></path>
        </g>
    </g>
</svg>